<svg version="1.0" xmlns="http://www.w3.org/2000/svg" width="1024px" height="1024px" viewBox="0 0 400 400" preserveAspectRatio="xMidYMid meet"><g stroke="none" fill-rule="evenodd"><path id="path0" d="M103.906 7.667c-14.218 1.63-27.258 4.269-45.312 9.172-11.254 3.056-18.75 5.495-18.75 6.101 0 .521 3.918 8.121 7.102 13.779 8.353 14.838 14.641 24.736 23.671 37.265 3.932 5.455 5.189 7.089 9.79 12.729 4.835 5.929 14.247 14.993 20.237 19.491 16.054 12.053 41.467 17.579 61.257 13.318.974-.21 2.518-.545 3.431-.745 8.439-1.849 18.228-7.058 25.334-13.481 4.35-3.932 4.342-3.93 11.225-2.194 6.892 1.738 21.867 7.853 35.565 14.523 3.182 1.549 5.768 2.589 5.96 2.396.363-.363-.072-.688-14.9-11.132-10.156-7.153-36.261-23.673-37.075-23.462-.161.041-1.245-.521-2.409-1.249-12.188-7.62-45.567-22.651-63.754-28.708-6.167-2.054-4.322-1.715 8.523 1.568 33.694 8.612 53.762 15.972 67.45 24.739 2.747 1.759 3.437 1.815 3.437.28 0-.631.188-1.642.418-2.246.647-1.702.725-11.559.121-15.409-3.905-24.932-27.313-48.26-54.446-54.261-9.825-2.173-12.877-2.434-29.687-2.535-8.701-.052-16.436-.025-17.188.061" fill="#33a453"/><path id="path1" d="M88.749 108.074c-61.306 61.382-61.221 163.933.187 223.975 73.556 71.921 192.471 56.323 247.761-32.498 29.306-47.08 27.299-104.52-4.585-131.217-19.633-16.44-29.341-19.051-80.543-21.667-6.334-.323-12.424-.694-13.532-.825l-2.015-.236-5.218-6.491c-17.677-21.989-31.249-36.579-34.431-37.016l-1.862-.255-2.626 2.514c-17.285 16.541-43.17 21.059-70.596 12.321-9.97-3.176-14.704-5.796-25.437-14.074l-.926-.714-6.177 6.183m48.628 25.546c4.868 1.844 4.236 5.785-1.532 9.544-12.654 8.248-22.775 19.481-30.177 33.493-2.669 5.052-3.598 5.92-6.046 5.646-4.276-.478-4.889-3.431-1.936-9.316 7.08-14.107 18.348-27.051 31.195-35.835 5.714-3.907 6.569-4.262 8.496-3.532" fill="#f44f43"/><path id="path2" d="M205.586 72.656c0 1.182.073 1.665.163 1.074a8.674 8.674 0 0 0 0-2.148c-.09-.591-.163-.107-.163 1.074m-71.803 61.378c-10.649 5.683-24.299 19.134-31.921 31.456-7.187 11.619-7.796 16.192-2.24 16.813 2.448.274 3.377-.594 6.046-5.646 7.402-14.012 17.523-25.245 30.177-33.493 4.892-3.188 6.047-5.928 3.504-8.31-1.859-1.742-3.41-1.97-5.566-.82" fill="#fbfafa"/><path id="path3" d="M301.993 33.005c-28.551 16.871-50.291 46.652-57.462 78.714-1.498 6.7-1.596 7.355-1.133 7.641.26.161.202.477-.165.894-.604.686-1.249 5.533-1.685 12.656-.141 2.31-.399 4.199-.572 4.199-.174 0-2.651-2.856-5.504-6.347-5.061-6.192-15.073-17.956-18.127-21.298-1.927-2.109-14.959-7.078-18.664-7.117-.188-.002 1.921 2.332 4.688 5.187 7.837 8.086 19.79 21.904 29.176 33.729l3.444 4.339 2.032.238c1.117.132 7.214.504 13.548.827 51.202 2.616 60.91 5.227 80.543 21.667 43.004 36.009 29.799 118.585-26.93 168.402-64.044 56.242-155.97 54.25-216.246-4.687-61.423-60.057-61.494-162.593-.156-224.006l6.207-6.214-3.107-3.107-3.107-3.107-3.273 3.008c-42.52 39.079-61.482 106.094-46.44 164.129 15.015 57.933 60.013 102.893 118.753 118.651 24.714 6.63 56.041 6.66 81.721.079 71.639-18.361 125.195-82.063 126.374-150.314.693-40.113-14.586-65.85-49.697-83.714-11.067-5.63-25.233-7.888-59.57-9.494l-5.664-.265.072-4.882c.509-34.342 23.062-72.43 53.661-90.625 6.693-3.98 8.083-6.817 4.899-10-1.938-1.939-3.177-1.806-7.616.817M187.305 83.109c.731.713 4.247 2.599 3.95 2.119-.162-.262-1.205-.932-2.318-1.488-1.113-.556-1.847-.84-1.632-.631m3.1 22.457l-1.147 1.27 1.269-1.147c1.184-1.07 1.449-1.392 1.148-1.392-.068 0-.639.571-1.27 1.269" fill="#b0273c"/></g></svg>
